PathFileType	4	(X/Y/Z)	./resultDataOpenSim/trcMotMarkerGrf/sub10/qtm-04-03.trc
DataRate	CameraRate	NumFrames	NumMarkers	Units	OrigDataRate	OrigDataStartFrame	OrigNumFrames
250.000000	250.000000	13	24	m	250.000000	382	508
Frame#	Time	L.Toe.Tip			R.Toe.Tip			L.Ankle.Lat			R.Ankle.Lat			L.Ankle.Med			R.Ankle.Med			L.Heel			R.Heel			L.Knee.Lat			R.Knee.Lat			L.Knee.Med			R.Knee.Med			L.Thigh.Upper			R.Thigh.Upper			L.ASIS			R.ASIS			V.Sacral			L.Acromium			R.Acromium			C7			L.Elbow			R.Elbow			L.Wrist.Lat			R.Wrist.Lat
		X1	Y1	Z1	X2	Y2	Z2	X3	Y3	Z3	X4	Y4	Z4	X5	Y5	Z5	X6	Y6	Z6	X7	Y7	Z7	X8	Y8	Z8	X9	Y9	Z9	X10	Y10	Z10	X11	Y11	Z11	X12	Y12	Z12	X13	Y13	Z13	X14	Y14	Z14	X15	Y15	Z15	X16	Y16	Z16	X17	Y17	Z17	X18	Y18	Z18	X19	Y19	Z19	X20	Y20	Z20	X21	Y21	Z21	X22	Y22	Z22	X23	Y23	Z23	X24	Y24	Z24

382	1.524	0.53764893	0.096650418	-0.12484897	0.9009398	0.03874277	0.0037328596	0.50968413	0.22881734	-0.15479699	0.75939971	0.05413246	0.048325542	0.53810026	0.23340554	-0.075673273	0.77757063	0.079961636	-0.037037697	0.45874914	0.27025159	-0.10500602	0.70694476	0.030735415	0.0053161202	0.81803345	0.43730478	-0.20702574	0.8462684	0.44531513	0.071071504	0.8449875	0.40602909	-0.088364377	0.84635953	0.45360955	-0.057141551	0.72359243	0.80357208	-0.23493492	0.7799442	0.85538116	0.13996735	0.7952077	0.92050095	-0.18420253	0.83914509	0.93798711	0.053762848	0.61480537	0.95316581	-0.036500207	0.75957413	1.4238903	-0.17975406	0.76119532	1.3986777	0.13802962	0.67461566	1.4304269	-0.023872172	0.70477584	1.0929718	-0.27875758	0.6525719	1.0565665	0.17852582	0.86329626	0.90575054	-0.27597469	0.8193248	0.89934878	0.27438644
383	1.528	0.55298701	0.096439471	-0.12523253	0.90092233	0.03875059	0.0037635286	0.52245971	0.22809125	-0.15440647	0.7592358	0.054213662	0.048382403	0.55115045	0.23290875	-0.075308287	0.7775789	0.080068132	-0.03700219	0.47084991	0.26844059	-0.10434203	0.70691549	0.030821876	0.0052571777	0.82793082	0.44055357	-0.20706602	0.84656481	0.44549236	0.071500479	0.85498481	0.40944893	-0.088308789	0.84592114	0.45366824	-0.056693155	0.73057391	0.80572754	-0.23571575	0.78379349	0.85642708	0.13984999	0.80104716	0.92256944	-0.1836019	0.84350773	0.9396061	0.054619053	0.62039478	0.95467913	-0.038208058	0.76405794	1.4254945	-0.17994417	0.76596243	1.4005247	0.13786727	0.67934807	1.4321052	-0.02385786	0.70675228	1.0950402	-0.27857114	0.65896138	1.0577513	0.1808306	0.86288821	0.90601614	-0.27825728	0.83013675	0.90333926	0.27429459
384	1.532	0.56840727	0.096031516	-0.12558881	0.90090784	0.03875831	0.0037917442	0.53529862	0.22713456	-0.15402552	0.75912997	0.054305645	0.048411658	0.56424255	0.23222292	-0.074983978	0.77759244	0.080177162	-0.03697273	0.48304495	0.26634517	-0.10375363	0.70687258	0.030904226	0.0052096907	0.83766509	0.44375403	-0.20722535	0.84685942	0.44566136	0.071929094	0.86483905	0.41281409	-0.088232896	0.84508098	0.45374373	-0.056338503	0.73756461	0.80786642	-0.23647624	0.78768337	0.85743543	0.1397216	0.80692883	0.92460386	-0.18296358	0.84785014	0.94116655	0.055432004	0.62576338	0.95587021	-0.039950114	0.76854057	1.4270473	-0.18013494	0.77069081	1.4023281	0.13769779	0.68407202	1.4337611	-0.023779651	0.70870822	1.0971416	-0.27854317	0.66555003	1.0590037	0.18307977	0.86255374	0.90627448	-0.28054654	0.84084972	0.90730717	0.2742056
385	1.536	0.58393829	0.095428653	-0.12593608	0.90089646	0.038766286	0.0038174804	0.54821523	0.22594665	-0.15366231	0.75907665	0.054403739	0.048412623	0.57742586	0.23132329	-0.074729677	0.77761431	0.080288488	-0.036954425	0.49535102	0.26397054	-0.10328881	0.70681332	0.030973827	0.0051689502	0.84735136	0.44687108	-0.2074285	0.84717516	0.44582563	0.072354348	0.87480699	0.41612106	-0.088246694	0.8444596	0.45383483	-0.05589846	0.74468106	0.80998548	-0.23712213	0.79165055	0.85841912	0.1395905	0.81288868	0.92661322	-0.1822852	0.8521691	0.94266764	0.056220158	0.63145685	0.95691641	-0.04148761	0.77302603	1.4285415	-0.18033401	0.77537391	1.4040798	0.13751981	0.6888027	1.4353984	-0.023713977	0.71063642	1.0992935	-0.27873912	0.67228256	1.0602274	0.18534963	0.86226505	0.90653579	-0.28283006	0.85146579	0.91124565	0.27411935
386	1.54	0.59972663	0.094669251	-0.12636189	0.90088826	0.038775624	0.003839132	0.56124354	0.22453236	-0.15334148	0.75909566	0.054498297	0.048375546	0.59071624	0.23020263	-0.074571882	0.77765073	0.080402893	-0.036953969	0.50776343	0.2613323	-0.1029122	0.70673951	0.031024621	0.005118844	0.85707615	0.44987639	-0.20758527	0.84752609	0.44598809	0.072775652	0.88497164	0.4193779	-0.088374632	0.84466195	0.45392056	-0.055237451	0.75204412	0.81206537	-0.2375731	0.79570749	0.85938678	0.1394648	0.81895724	0.92860339	-0.1816008	0.85646999	0.94410977	0.056997596	0.63781313	0.9579778	-0.042326389	0.77751109	1.4299747	-0.18054671	0.78000995	1.4057786	0.13733591	0.69354253	1.436993	-0.023728518	0.71254515	1.1014666	-0.27912079	0.67920364	1.0613228	0.18758145	0.86207786	0.90680114	-0.2850811	0.8620035	0.91514726	0.27403428
387	1.544	0.61589787	0.093802943	-0.12693738	0.900882	0.038786646	0.0038562173	0.57442102	0.22289686	-0.1530926	0.75919662	0.054582286	0.048296595	0.60408093	0.22886921	-0.074484219	0.77770536	0.080520818	-0.036973563	0.52025617	0.25845044	-0.10249723	0.70665566	0.031059503	0.0050410823	0.86682814	0.45275676	-0.20766679	0.84791171	0.44614587	0.073186823	0.89527099	0.4225971	-0.088579893	0.84561304	0.45397681	-0.054434207	0.75963962	0.81407431	-0.23784718	0.79977627	0.86032132	0.13936042	0.82512735	0.93057221	-0.18094089	0.86076116	0.9454874	0.057760595	0.64473148	0.95912277	-0.042113225	0.78199135	1.4313465	-0.18076965	0.78460646	1.4074271	0.13715376	0.69828313	1.4385198	-0.023829487	0.71445977	1.1035934	-0.27954505	0.6863068	1.0622436	0.18965622	0.86200611	0.90707506	-0.28728986	0.87248837	0.91901127	0.27395133
388	1.548	0.63237597	0.092860172	-0.12761631	0.90087536	0.038797019	0.0038708717	0.58774746	0.2210428	-0.15292	0.75933724	0.054656412	0.048194317	0.61750102	0.22733731	-0.074389838	0.77776688	0.080639889	-0.037004556	0.53281054	0.25533803	-0.10194452	0.70656785	0.031093589	0.0049306457	0.87652977	0.4555183	-0.2077057	0.84832603	0.44628813	0.073575876	0.90557427	0.42578893	-0.088826948	0.84674865	0.45399187	-0.053696568	0.76731655	0.8160025	-0.23805554	0.80373243	0.86118935	0.13929848	0.83132538	0.93250472	-0.18031019	0.86504589	0.94678973	0.058492348	0.65162724	0.9603562	-0.041185726	0.78646766	1.4326554	-0.18099379	0.78917206	1.4090266	0.13697809	0.70302255	1.4399652	-0.023989036	0.71640402	1.105623	-0.27987516	0.69346996	1.0630094	0.19150219	0.86194736	0.90736346	-0.2894637	0.88293885	0.9228429	0.27387128
389	1.552	0.648945	0.091851171	-0.12828504	0.90086752	0.038803007	0.003885364	0.60117693	0.21898207	-0.15278809	0.75945132	0.054724642	0.048096763	0.63108341	0.22560872	-0.074258921	0.7778122	0.080756683	-0.037030989	0.54543628	0.25199929	-0.10127939	0.70647299	0.031145284	0.0048051745	0.88612196	0.458186	-0.20774027	0.84876649	0.44640783	0.073940003	0.91579401	0.42895044	-0.089108388	0.84759304	0.45397415	-0.053166145	0.77490989	0.81790411	-0.23831489	0.8075385	0.86197554	0.13928665	0.83747947	0.93438316	-0.17969899	0.86932171	0.94800664	0.05917692	0.65778049	0.96164383	-0.04047919	0.79094276	1.4339001	-0.18121386	0.79370667	1.4105763	0.13680576	0.70776492	1.441322	-0.024183521	0.71838634	1.1075565	-0.2800699	0.70055592	1.0636975	0.19310431	0.86178068	0.90766041	-0.29161355	0.89335529	0.92664363	0.27379388
390	1.556	0.66546898	0.090778781	-0.12888991	0.90086094	0.038803094	0.0038996855	0.61466689	0.21673638	-0.15265272	0.75951061	0.054788306	0.048016555	0.64502149	0.22367799	-0.074162722	0.77783159	0.080871417	-0.037045558	0.55815712	0.24843564	-0.10060585	0.70635381	0.031219441	0.0046869713	0.89559276	0.46079352	-0.20778455	0.84923361	0.44651256	0.074290617	0.92600416	0.43206639	-0.089443231	0.84805052	0.45393529	-0.052842205	0.78235565	0.81985487	-0.23865614	0.81126397	0.86268886	0.13931036	0.84357604	0.93619954	-0.17910744	0.87358555	0.94913434	0.05981052	0.66288476	0.96291936	-0.040715213	0.79541746	1.4350793	-0.18143116	0.7982041	1.412072	0.13662904	0.71250671	1.4425906	-0.024397905	0.72040339	1.1094207	-0.28016191	0.70753281	1.0644062	0.19450077	0.86146857	0.90794947	-0.29375134	0.90372175	0.93040684	0.27372039
391	1.56	0.68198004	0.089650686	-0.12945413	0.90085975	0.038799368	0.0039116195	0.6282157	0.21432125	-0.1525009	0.75953808	0.054845736	0.047945908	0.6593918	0.22156245	-0.074183942	0.77784261	0.080987837	-0.037058056	0.57098652	0.24464822	-0.10000016	0.70620981	0.031305793	0.0045773345	0.90495091	0.46336571	-0.2078337	0.84972061	0.44661678	0.074644096	0.93638217	0.43511519	-0.089845397	0.84829664	0.45387421	-0.052630992	0.78971332	0.82184655	-0.23900314	0.81497998	0.86333959	0.13934422	0.84963295	0.93795583	-0.1785419	0.87783767	0.95017693	0.060404906	0.66714143	0.96413288	-0.041982397	0.79989272	1.4361881	-0.18164903	0.80266226	1.4135076	0.136444	0.717238	1.4437776	-0.024623201	0.72244331	1.111229	-0.28020818	0.71451881	1.065176	0.19581443	0.86104895	0.90821117	-0.29587765	0.91402447	0.93412514	0.27365205
392	1.564	0.69858369	0.088471382	-0.1300025	0.90086665	0.03879479	0.0039183539	0.6418452	0.21174077	-0.15234888	0.75956993	0.0548958	0.047870164	0.67403318	0.2193032	-0.074315404	0.77788151	0.081106239	-0.037086759	0.58392415	0.24063588	-0.099465179	0.7060907	0.031395873	0.0044591529	0.9142014	0.46590623	-0.20787624	0.85021063	0.44672659	0.075016205	0.94694518	0.43807425	-0.090280388	0.84851286	0.45380012	-0.052448552	0.79700169	0.82379826	-0.23931317	0.81870293	0.86393019	0.13936945	0.85565612	0.93965481	-0.1779968	0.88208078	0.95114082	0.060976881	0.67099057	0.96526677	-0.043977133	0.80436933	1.4372182	-0.18186959	0.80708945	1.4148785	0.13625671	0.72195551	1.4448895	-0.024857665	0.72449047	1.1129759	-0.2802597	0.72169326	1.065965	0.19720148	0.86058985	0.90843116	-0.29796562	0.92426851	0.93779774	0.2735878
393	1.568	0.71533301	0.087230516	-0.13052787	0.90088106	0.038789659	0.0039194973	0.65556938	0.20899495	-0.15221469	0.75962133	0.054941329	0.047780734	0.68862635	0.21693735	-0.074466572	0.77799554	0.081216261	-0.037148294	0.59697261	0.23639526	-0.098965288	0.70607249	0.031497874	0.0043163009	0.92334256	0.4683972	-0.20790241	0.85068947	0.4468363	0.075416892	0.9573894	0.44093065	-0.090682299	0.84873874	0.45374159	-0.052297046	0.80410414	0.82566506	-0.23967686	0.82241178	0.86445969	0.13938501	0.86163093	0.94129272	-0.17746077	0.88631731	0.95202756	0.061536051	0.67493032	0.96629488	-0.046214001	0.8088471	1.4381641	-0.18209401	0.8115001	1.4161837	0.13607554	0.72666426	1.4459287	-0.025104429	0.72653448	1.1146558	-0.28034074	0.7291456	1.0667194	0.19872768	0.86014821	0.90861434	-0.29998177	0.93447448	0.94142794	0.27352776
394	1.572	0.73220995	0.085934238	-0.13102545	0.90089976	0.038780595	0.0039182683	0.66938259	0.2060886	-0.15209992	0.75968325	0.054988782	0.04767893	0.7029297	0.2144789	-0.074549078	0.77822595	0.081300173	-0.037251312	0.61015693	0.23192854	-0.098491106	0.70619032	0.031635401	0.0041472259	0.93238205	0.47081389	-0.20790842	0.85115964	0.44693618	0.075835129	0.96732573	0.44368424	-0.091027708	0.84897561	0.45370497	-0.052187525	0.81101418	0.82745313	-0.24014793	0.8260578	0.86491792	0.13940948	0.86754244	0.94285846	-0.1769336	0.89054951	0.95283535	0.062090159	0.67934524	0.96717584	-0.048085655	0.81332817	1.4390256	-0.18232131	0.81590213	1.417424	0.13589946	0.73136834	1.4468886	-0.025366165	0.72856998	1.1162719	-0.28045382	0.73683785	1.0674255	0.20034275	0.85973836	0.90878301	-0.30192609	0.94466586	0.94501627	0.27347338
